<svg xmlns="http://www.w3.org/2000/svg" viewBox="0 0 40 40"><g fill="#FFF"><path d="M30.5 38.5A1.5 1.5 0 0 1 29 37V24a1.5 1.5 0 0 1 3 0v13a1.5 1.5 0 0 1-1.5 1.5Z"/><path d="M38.5 30.5A1.5 1.5 0 0 1 37 32H24a1.5 1.5 0 0 1 0-3h13a1.5 1.5 0 0 1 1.5 1.5Z"/></g><path fill="transparent" stroke="#FFF" stroke-width="3" d="M23.5 9a6.5 6.5 0 1 1 13 0 6.5 6.5 0 1 1-13 0ZM8.939 24.061a1.5 1.5 0 0 1 2.122 0l5.378 5.378a1.5 1.5 0 0 1 0 2.122l-5.378 5.378a1.5 1.5 0 0 1-2.122 0l-5.378-5.378a1.5 1.5 0 0 1 0-2.122ZM2.895 13.99a1 1 0 0 0 .86 1.51h12.49a1 1 0 0 0 .86-1.51L10.86 3.452a1 1 0 0 0-1.72 0Z"/><path fill="transparent" d="M30 3a6 6 0 1 1 0 12 6 6 0 0 1 0-12ZM10 23l-7 7.5 7 7.5 7-7.5Z"/></svg>